<mxfile host="app.diagrams.net" modified="2023-02-28T14:08:16.654Z" agent="5.0 (Windows NT 10.0; Win64; x64) AppleWebKit/537.36 (KHTML, like Gecko) Chrome/110.0.0.0 Safari/537.36" etag="t7WPBEeAj4dT2MmuPran" version="20.8.23" type="github">
  <diagram id="R2lEEEUBdFMjLlhIrx00" name="Page-1">
    <mxGraphModel dx="874" dy="444" grid="1" gridSize="10" guides="1" tooltips="1" connect="1" arrows="1" fold="1" page="1" pageScale="1" pageWidth="850" pageHeight="1100" math="0" shadow="0" extFonts="Permanent Marker^https://fonts.googleapis.com/css?family=Permanent+Marker">
      <root>
        <mxCell id="0" />
        <mxCell id="1" parent="0" />
        <mxCell id="wyVhDPVMq1cf9gof0Q1h-1" value="Aula" style="swimlane;childLayout=stackLayout;horizontal=1;startSize=30;horizontalStack=0;rounded=1;fontSize=14;fontStyle=0;strokeWidth=2;resizeParent=0;resizeLast=1;shadow=0;dashed=0;align=center;" vertex="1" parent="1">
          <mxGeometry x="630" y="345" width="160" height="120" as="geometry" />
        </mxCell>
        <mxCell id="wyVhDPVMq1cf9gof0Q1h-2" value="+id&#xa;+Classe&#xa;+Disciplina&#xa;+Professor&#xa;+Aluno[]" style="align=left;strokeColor=none;fillColor=none;spacingLeft=4;fontSize=12;verticalAlign=top;resizable=0;rotatable=0;part=1;" vertex="1" parent="wyVhDPVMq1cf9gof0Q1h-1">
          <mxGeometry y="30" width="160" height="90" as="geometry" />
        </mxCell>
        <mxCell id="wyVhDPVMq1cf9gof0Q1h-4" value="Professor" style="swimlane;childLayout=stackLayout;horizontal=1;startSize=20;horizontalStack=0;rounded=1;fontSize=14;fontStyle=0;strokeWidth=2;resizeParent=0;resizeLast=1;shadow=0;dashed=0;align=center;" vertex="1" parent="1">
          <mxGeometry x="150" y="120" width="160" height="120" as="geometry" />
        </mxCell>
        <mxCell id="wyVhDPVMq1cf9gof0Q1h-5" value="+id&#xa;+nome&#xa;+Curso&#xa;+Disciplina[]" style="align=left;strokeColor=none;fillColor=none;spacingLeft=4;fontSize=12;verticalAlign=top;resizable=0;rotatable=0;part=1;" vertex="1" parent="wyVhDPVMq1cf9gof0Q1h-4">
          <mxGeometry y="20" width="160" height="100" as="geometry" />
        </mxCell>
        <mxCell id="wyVhDPVMq1cf9gof0Q1h-6" value="Classe" style="swimlane;childLayout=stackLayout;horizontal=1;startSize=30;horizontalStack=0;rounded=1;fontSize=14;fontStyle=0;strokeWidth=2;resizeParent=0;resizeLast=1;shadow=0;dashed=0;align=center;" vertex="1" parent="1">
          <mxGeometry x="630" y="120" width="160" height="120" as="geometry" />
        </mxCell>
        <mxCell id="wyVhDPVMq1cf9gof0Q1h-7" value="+id&#xa;+nome&#xa;+Curso&#xa;+Aula[]" style="align=left;strokeColor=none;fillColor=none;spacingLeft=4;fontSize=12;verticalAlign=top;resizable=0;rotatable=0;part=1;" vertex="1" parent="wyVhDPVMq1cf9gof0Q1h-6">
          <mxGeometry y="30" width="160" height="90" as="geometry" />
        </mxCell>
        <mxCell id="wyVhDPVMq1cf9gof0Q1h-8" value="Disciplina" style="swimlane;childLayout=stackLayout;horizontal=1;startSize=30;horizontalStack=0;rounded=1;fontSize=14;fontStyle=0;strokeWidth=2;resizeParent=0;resizeLast=1;shadow=0;dashed=0;align=center;" vertex="1" parent="1">
          <mxGeometry x="150" y="340" width="160" height="120" as="geometry" />
        </mxCell>
        <mxCell id="wyVhDPVMq1cf9gof0Q1h-31" value="+id&#xa;+nome&#xa;+categoria" style="align=left;strokeColor=none;fillColor=none;spacingLeft=4;fontSize=12;verticalAlign=top;resizable=0;rotatable=0;part=1;" vertex="1" parent="wyVhDPVMq1cf9gof0Q1h-8">
          <mxGeometry y="30" width="160" height="90" as="geometry" />
        </mxCell>
        <mxCell id="wyVhDPVMq1cf9gof0Q1h-43" style="edgeStyle=orthogonalEdgeStyle;rounded=0;orthogonalLoop=1;jettySize=auto;html=1;entryX=0.5;entryY=1;entryDx=0;entryDy=0;entryPerimeter=0;" edge="1" parent="1" source="wyVhDPVMq1cf9gof0Q1h-10" target="wyVhDPVMq1cf9gof0Q1h-16">
          <mxGeometry relative="1" as="geometry">
            <mxPoint x="460" y="250" as="targetPoint" />
          </mxGeometry>
        </mxCell>
        <mxCell id="wyVhDPVMq1cf9gof0Q1h-10" value="Aluno" style="swimlane;childLayout=stackLayout;horizontal=1;startSize=30;horizontalStack=0;rounded=1;fontSize=14;fontStyle=0;strokeWidth=2;resizeParent=0;resizeLast=1;shadow=0;dashed=0;align=center;" vertex="1" parent="1">
          <mxGeometry x="380" y="340" width="160" height="130" as="geometry" />
        </mxCell>
        <mxCell id="wyVhDPVMq1cf9gof0Q1h-11" value="+id&#xa;+nome&#xa;+Curso&#xa;+Disciplina[]" style="align=left;strokeColor=none;fillColor=none;spacingLeft=4;fontSize=12;verticalAlign=top;resizable=0;rotatable=0;part=1;" vertex="1" parent="wyVhDPVMq1cf9gof0Q1h-10">
          <mxGeometry y="30" width="160" height="100" as="geometry" />
        </mxCell>
        <mxCell id="wyVhDPVMq1cf9gof0Q1h-15" value="Curso" style="swimlane;childLayout=stackLayout;horizontal=1;startSize=30;horizontalStack=0;rounded=1;fontSize=14;fontStyle=0;strokeWidth=2;resizeParent=0;resizeLast=1;shadow=0;dashed=0;align=center;" vertex="1" parent="1">
          <mxGeometry x="380" y="120" width="160" height="120" as="geometry" />
        </mxCell>
        <mxCell id="wyVhDPVMq1cf9gof0Q1h-16" value="+id&#xa;+nome&#xa;+Classe[]&#xa;+Professor[]&#xa;+Aluno[]" style="align=left;strokeColor=none;fillColor=none;spacingLeft=4;fontSize=12;verticalAlign=top;resizable=0;rotatable=0;part=1;" vertex="1" parent="wyVhDPVMq1cf9gof0Q1h-15">
          <mxGeometry y="30" width="160" height="90" as="geometry" />
        </mxCell>
        <mxCell id="wyVhDPVMq1cf9gof0Q1h-30" style="edgeStyle=orthogonalEdgeStyle;rounded=0;orthogonalLoop=1;jettySize=auto;html=1;" edge="1" parent="1" source="wyVhDPVMq1cf9gof0Q1h-5" target="wyVhDPVMq1cf9gof0Q1h-8">
          <mxGeometry relative="1" as="geometry" />
        </mxCell>
        <mxCell id="wyVhDPVMq1cf9gof0Q1h-34" style="edgeStyle=orthogonalEdgeStyle;rounded=0;orthogonalLoop=1;jettySize=auto;html=1;entryX=1;entryY=0.411;entryDx=0;entryDy=0;entryPerimeter=0;" edge="1" parent="1" source="wyVhDPVMq1cf9gof0Q1h-11" target="wyVhDPVMq1cf9gof0Q1h-31">
          <mxGeometry relative="1" as="geometry" />
        </mxCell>
        <mxCell id="wyVhDPVMq1cf9gof0Q1h-39" style="edgeStyle=orthogonalEdgeStyle;rounded=0;orthogonalLoop=1;jettySize=auto;html=1;entryX=0.5;entryY=1;entryDx=0;entryDy=0;" edge="1" parent="1" source="wyVhDPVMq1cf9gof0Q1h-31" target="wyVhDPVMq1cf9gof0Q1h-2">
          <mxGeometry relative="1" as="geometry">
            <Array as="points">
              <mxPoint x="230" y="540" />
              <mxPoint x="710" y="540" />
            </Array>
          </mxGeometry>
        </mxCell>
        <mxCell id="wyVhDPVMq1cf9gof0Q1h-40" style="edgeStyle=orthogonalEdgeStyle;rounded=0;orthogonalLoop=1;jettySize=auto;html=1;entryX=0.75;entryY=1;entryDx=0;entryDy=0;" edge="1" parent="1" source="wyVhDPVMq1cf9gof0Q1h-5" target="wyVhDPVMq1cf9gof0Q1h-2">
          <mxGeometry relative="1" as="geometry">
            <Array as="points">
              <mxPoint x="80" y="190" />
              <mxPoint x="80" y="570" />
              <mxPoint x="750" y="570" />
            </Array>
          </mxGeometry>
        </mxCell>
        <mxCell id="wyVhDPVMq1cf9gof0Q1h-41" style="edgeStyle=orthogonalEdgeStyle;rounded=0;orthogonalLoop=1;jettySize=auto;html=1;entryX=0;entryY=0.5;entryDx=0;entryDy=0;" edge="1" parent="1" source="wyVhDPVMq1cf9gof0Q1h-11" target="wyVhDPVMq1cf9gof0Q1h-2">
          <mxGeometry relative="1" as="geometry" />
        </mxCell>
        <mxCell id="wyVhDPVMq1cf9gof0Q1h-42" style="edgeStyle=orthogonalEdgeStyle;rounded=0;orthogonalLoop=1;jettySize=auto;html=1;entryX=0.5;entryY=0;entryDx=0;entryDy=0;" edge="1" parent="1" source="wyVhDPVMq1cf9gof0Q1h-7" target="wyVhDPVMq1cf9gof0Q1h-1">
          <mxGeometry relative="1" as="geometry" />
        </mxCell>
        <mxCell id="wyVhDPVMq1cf9gof0Q1h-46" style="edgeStyle=orthogonalEdgeStyle;rounded=0;orthogonalLoop=1;jettySize=auto;html=1;entryX=0;entryY=0.444;entryDx=0;entryDy=0;entryPerimeter=0;" edge="1" parent="1" source="wyVhDPVMq1cf9gof0Q1h-5" target="wyVhDPVMq1cf9gof0Q1h-16">
          <mxGeometry relative="1" as="geometry" />
        </mxCell>
        <mxCell id="wyVhDPVMq1cf9gof0Q1h-47" style="edgeStyle=orthogonalEdgeStyle;rounded=0;orthogonalLoop=1;jettySize=auto;html=1;entryX=1;entryY=0.5;entryDx=0;entryDy=0;" edge="1" parent="1" source="wyVhDPVMq1cf9gof0Q1h-7" target="wyVhDPVMq1cf9gof0Q1h-16">
          <mxGeometry relative="1" as="geometry" />
        </mxCell>
      </root>
    </mxGraphModel>
  </diagram>
</mxfile>
